# xmcd
#
# Track frame offsets:
#	150
#	11282
#	23689
#	35424
#	46237
#	57913
#	70321
#	82377
#	96174
#	106986
#	120476
#	131947
#	143412
#	155003
#	166637
#	178657
#	191573
#	201464
#	212093
#	225765
#	238073
#	249824
#	261637
#	275634
#	288059
#	301017
#	311865
#	324297
#	338616
#
# Disc length: 4710 seconds
#
# Revision: 1
# Processed by: cddbd v1.4PL0 Copyright (c) Steve Scherf et al.
# Submitted via: audiograbber 1.80.04
#
DISCID=9312641d
DTITLE=Five Royales - All Righty! The Apollo Recordings 1951-1955
DYEAR=1999
DGENRE=R&B
TTITLE0=Too Much Of A Little Bit
TTITLE1=Give Me One More Chance
TTITLE2=You Know I Know
TTITLE3=Courage To Love
TTITLE4=Baby, Take All Of Me
TTITLE5=Baby, Don't Do It
TTITLE6=Crazy, Crazy, Crazy
TTITLE7=Help Me Somebody
TTITLE8=Laundromat Blues
TTITLE9=Too Much Lovin'
TTITLE10=I Want To Thank You
TTITLE11=All Righty!
TTITLE12=I Do
TTITLE13=Good Things
TTITLE14=Cry Some More
TTITLE15=I Like It Like That
TTITLE16=What's That
TTITLE17=Let Me Come Back Home
TTITLE18=Put Something In It (With All Your Heart)
TTITLE19=Six O'Clock In The Morning
TTITLE20=See, Hear And Know Nothing
TTITLE21=So God Can Use Me
TTITLE22=I Am Thinking
TTITLE23=I Wanna Rest
TTITLE24=Put Something In It (With All Your Heart) Alternative Version
TTITLE25=Bedside Of A Neighbour
TTITLE26=Journey's End
TTITLE27=Come Over Here
TTITLE28=Let Nothing Separate Me
EXTD=
EXTT0=
EXTT1=
EXTT2=
EXTT3=
EXTT4=
EXTT5=
EXTT6=
EXTT7=
EXTT8=
EXTT9=
EXTT10=
EXTT11=
EXTT12=
EXTT13=
EXTT14=
EXTT15=
EXTT16=
EXTT17=
EXTT18=
EXTT19=
EXTT20=
EXTT21=
EXTT22=
EXTT23=
EXTT24=
EXTT25=
EXTT26=
EXTT27=
EXTT28=
PLAYORDER=
